<?xml version="1.0" encoding="utf-8"?>
<!-- Generator: Adobe Illustrator 16.0.0, SVG Export Plug-In . SVG Version: 6.00 Build 0)  -->
<!DOCTYPE svg PUBLIC "-//W3C//DTD SVG 1.1//EN" "http://www.w3.org/Graphics/SVG/1.1/DTD/svg11.dtd">
<svg version="1.1" id="Layer_1" xmlns="http://www.w3.org/2000/svg" xmlns:xlink="http://www.w3.org/1999/xlink" x="0px" y="0px"
	 width="1000px" height="604.151px" viewBox="0 0 1000 604.151" enable-background="new 0 0 1000 604.151" xml:space="preserve">
<g>
	<defs>
		<rect id="SVGID_1_" width="1000" height="604.151"/>
	</defs>
	<clipPath id="SVGID_2_">
		<use xlink:href="#SVGID_1_"  overflow="visible"/>
	</clipPath>
	<path clip-path="url(#SVGID_2_)" fill="#E03D40" d="M476.382,170.72C298.135,276.955,169.775,352.453,218.459,434.101
		c48.664,81.646,232.625,61.706,410.873-44.528C807.578,283.298,912.631,130.98,863.947,49.334
		C815.281-32.312,654.629,64.466,476.382,170.72"/>
	<g clip-path="url(#SVGID_2_)">
		<defs>
			<path id="SVGID_3_" d="M455.468,98.826C276.66,205.416,169.972,356.02,217.179,435.244
				c47.197,79.202,230.448,57.019,409.257-49.612c178.807-106.53,285.516-257.193,238.309-336.397
				C845.662,17.219,804.338,1.792,750.047,1.792C670.096,1.772,562.018,35.326,455.468,98.826"/>
		</defs>
		<clipPath id="SVGID_4_">
			<use xlink:href="#SVGID_3_"  overflow="visible"/>
		</clipPath>
		
			<radialGradient id="SVGID_5_" cx="276.7983" cy="636.7256" r="16.0989" gradientTransform="matrix(20.1116 -11.9872 -5.3092 -8.9072 -1641.5068 9227.6113)" gradientUnits="userSpaceOnUse">
			<stop  offset="0" style="stop-color:#FCBF58"/>
			<stop  offset="0.81" style="stop-color:#FCBF58"/>
			<stop  offset="0.8227" style="stop-color:#FAB957"/>
			<stop  offset="0.8404" style="stop-color:#F6AB55"/>
			<stop  offset="0.8612" style="stop-color:#F09550"/>
			<stop  offset="0.8842" style="stop-color:#EA784A"/>
			<stop  offset="0.9088" style="stop-color:#E24B42"/>
			<stop  offset="0.915" style="stop-color:#E03D40"/>
			<stop  offset="0.9883" style="stop-color:#E03D40"/>
			<stop  offset="1" style="stop-color:#E03D40"/>
		</radialGradient>
		<polygon clip-path="url(#SVGID_4_)" fill="url(#SVGID_5_)" points="-55.501,136.162 717.449,-324.557 1137.424,380.056 
			364.473,840.757 		"/>
	</g>
	<g clip-path="url(#SVGID_2_)">
		<defs>
			<path id="SVGID_6_" d="M392.017,331.017c-18.923-31.68,32.469-97.111,114.717-146.131
				c82.257-49.04,164.288-63.087,183.152-31.425c18.905,31.68-32.479,97.131-114.736,146.151
				c-52.517,31.268-104.934,48.35-140.881,48.35C413.926,347.962,398.844,342.484,392.017,331.017 M455.468,98.826
				C276.66,205.416,169.972,356.02,217.179,435.244c47.197,79.202,230.448,57.019,409.257-49.612
				c178.807-106.53,285.516-257.193,238.309-336.397C845.662,17.219,804.338,1.792,750.047,1.792
				C670.096,1.772,562.018,35.326,455.468,98.826"/>
		</defs>
		<clipPath id="SVGID_7_">
			<use xlink:href="#SVGID_6_"  overflow="visible"/>
		</clipPath>
		
			<radialGradient id="SVGID_8_" cx="275.5605" cy="641.042" r="16.1047" gradientTransform="matrix(18.1107 0 0 -18.1107 -4449.6147 11851.8779)" gradientUnits="userSpaceOnUse">
			<stop  offset="0" style="stop-color:#E13B3F"/>
			<stop  offset="0.2808" style="stop-color:#DC3A3D"/>
			<stop  offset="0.4921" style="stop-color:#D03538"/>
			<stop  offset="0.6807" style="stop-color:#BD2D30"/>
			<stop  offset="0.8549" style="stop-color:#A52326"/>
			<stop  offset="1" style="stop-color:#8B191C"/>
		</radialGradient>
		<rect x="169.972" y="1.772" clip-path="url(#SVGID_7_)" fill="url(#SVGID_8_)" width="741.979" height="512.674"/>
	</g>
	<path clip-path="url(#SVGID_2_)" fill="#FCBF58" d="M331.836,484.479h-0.02c-57.156,0-97.349-16.707-116.185-48.329
		c-23.229-38.952-10.974-95.733,34.479-159.865c45.128-63.737,117.741-127.316,204.432-178.976
		c52.231-31.129,105.25-55.521,157.627-72.523C662.205,8.57,709.885,0,750.066,0c57.156,0,97.35,16.707,116.195,48.329
		c23.219,38.951,10.973,95.713-34.459,159.884c-45.158,63.717-117.771,127.297-204.461,178.975
		c-52.212,31.11-105.23,55.521-157.629,72.485C419.698,475.909,372.009,484.479,331.836,484.479 M750.066,3.565
		c-82.207,0-192.009,36.174-293.692,96.798C278.699,206.262,172.07,356.098,218.696,434.316
		c18.175,30.48,57.294,46.597,113.14,46.597c82.198,0,191.989-36.194,293.673-96.797
		c177.685-105.92,284.325-255.717,237.679-333.955C845.033,19.662,805.914,3.565,750.066,3.565"/>
	<g clip-path="url(#SVGID_2_)">
		<defs>
			<path id="SVGID_9_" d="M392.017,331.017c-18.923-31.68,32.469-97.111,114.717-146.131
				c82.257-49.04,164.288-63.087,183.152-31.425c18.905,31.68-32.479,97.131-114.736,146.151
				c-52.517,31.268-104.934,48.35-140.881,48.35C413.926,347.962,398.844,342.484,392.017,331.017 M472.579,127.494
				c-146.634,87.419-234.9,209.652-197.131,272.996c37.769,63.36,187.261,43.855,333.875-43.503
				c146.655-87.419,234.901-209.653,197.132-272.996c-15.004-25.121-47.533-37.238-90.502-37.238
				C650.541,46.753,561.023,74.769,472.579,127.494"/>
		</defs>
		<clipPath id="SVGID_10_">
			<use xlink:href="#SVGID_9_"  overflow="visible"/>
		</clipPath>
		
			<radialGradient id="SVGID_11_" cx="279.9019" cy="632.2578" r="16.1065" gradientTransform="matrix(15.646 -10.8282 -9.1527 -13.2251 1948.5903 11634.8271)" gradientUnits="userSpaceOnUse">
			<stop  offset="0" style="stop-color:#E13B3F"/>
			<stop  offset="0.2808" style="stop-color:#DC3A3D"/>
			<stop  offset="0.4921" style="stop-color:#D03538"/>
			<stop  offset="0.6807" style="stop-color:#BD2D30"/>
			<stop  offset="0.8549" style="stop-color:#A52326"/>
			<stop  offset="1" style="stop-color:#8B191C"/>
		</radialGradient>
		<polygon clip-path="url(#SVGID_10_)" fill="url(#SVGID_11_)" points="42.498,181.832 647.793,-237.079 1039.406,328.772 
			434.111,747.684 		"/>
	</g>
	<path clip-path="url(#SVGID_2_)" fill="#FCBF58" d="M365.941,439.498L365.941,439.498c-45.355,0-77.165-13.161-92.04-38.084
		c-18.639-31.308-8.167-77.253,29.514-129.424c37.366-51.778,97.112-103.635,168.228-146.014
		c85.095-50.714,176.425-80.997,244.319-80.997c45.354,0,77.174,13.161,92.02,38.085c18.658,31.288,8.186,77.272-29.496,129.444
		c-37.365,51.738-97.121,103.595-168.247,145.993C525.165,409.215,433.815,439.498,365.941,439.498 M715.963,48.546
		c-67.264,0-157.915,30.105-242.487,80.503c-145.541,86.77-233.709,208.116-196.481,270.513
		c14.156,23.801,44.931,36.37,88.946,36.37c67.264,0,157.914-30.085,242.486-80.502c145.542-86.75,233.688-208.136,196.491-270.533
		C790.752,61.116,759.988,48.546,715.963,48.546"/>
	<g clip-path="url(#SVGID_2_)">
		<defs>
			<path id="SVGID_12_" d="M437.697,221.375c-40.272,31.996-55.729,106.313-55.729,106.313l17.013,8.787
				c0,0,5.684-33.041,98.571-100.107c92.868-67.105,162.553-87.754,206.905-67.619c0,0-2.041-37.158-57.768-37.63
				c-0.237-0.04-0.504-0.04-0.73-0.04C589.976,131.079,477.741,189.515,437.697,221.375"/>
		</defs>
		<clipPath id="SVGID_13_">
			<use xlink:href="#SVGID_12_"  overflow="visible"/>
		</clipPath>
		
			<radialGradient id="SVGID_14_" cx="289.9243" cy="656.9141" r="16.0982" gradientTransform="matrix(8.3972 0 0 -8.3972 -1891.3433 5750.0151)" gradientUnits="userSpaceOnUse">
			<stop  offset="0" style="stop-color:#E13B3F"/>
			<stop  offset="1" style="stop-color:#8B191C"/>
		</radialGradient>
		<rect x="381.968" y="131.079" clip-path="url(#SVGID_13_)" fill="url(#SVGID_14_)" width="322.489" height="205.396"/>
	</g>
	<g clip-path="url(#SVGID_2_)">
		<defs>
			<path id="SVGID_15_" d="M392.017,331.017c-18.923-31.68,32.469-97.111,114.717-146.131
				c82.257-49.04,164.288-63.087,183.152-31.425c18.905,31.68-32.479,97.131-114.736,146.151
				c-52.517,31.268-104.934,48.35-140.881,48.35C413.926,347.962,398.844,342.484,392.017,331.017 M489.652,156.179
				C375.23,224.447,305.405,318.23,333.737,365.754c28.322,47.521,144.063,30.735,258.505-37.454
				c114.41-68.23,184.256-162.072,155.953-209.574c-10.895-18.265-34.705-27.013-66.377-27.013
				C631.074,91.713,560.098,114.174,489.652,156.179"/>
		</defs>
		<clipPath id="SVGID_16_">
			<use xlink:href="#SVGID_15_"  overflow="visible"/>
		</clipPath>
		
			<radialGradient id="SVGID_17_" cx="273.293" cy="637.5176" r="16.101" gradientTransform="matrix(20.7884 -11.4535 -4.7619 -8.643 -2167.6533 8923.9336)" gradientUnits="userSpaceOnUse">
			<stop  offset="0" style="stop-color:#E13B3F"/>
			<stop  offset="1" style="stop-color:#8B191C"/>
		</radialGradient>
		<polygon clip-path="url(#SVGID_16_)" fill="url(#SVGID_17_)" points="169.489,166.582 666.795,-107.398 912.414,338.406 
			415.107,612.388 		"/>
	</g>
	<path clip-path="url(#SVGID_2_)" fill="#FCBF58" d="M400.095,394.559h-0.02c-33.533,0-56.989-9.654-67.865-27.879
		c-14.107-23.643-5.388-58.813,24.509-99.005c29.603-39.759,76.465-79.893,132.025-113.012
		c68.013-40.548,140.202-64.742,193.063-64.742c33.523,0,57.01,9.635,67.885,27.898c14.105,23.644,5.389,58.812-24.51,98.984
		c-29.604,39.779-76.484,79.913-132.025,113.011C525.146,370.363,452.956,394.559,400.095,394.559 M681.809,93.487
		c-52.261,0-123.74,23.997-191.221,64.249c-113.426,67.599-183.093,160.495-155.333,207.11
		c10.206,17.103,32.627,26.166,64.821,26.166c52.26,0,123.76-24.036,191.261-64.27c113.406-67.599,183.074-160.514,155.293-207.091
		C736.443,102.53,714.021,93.487,681.809,93.487"/>
	<path clip-path="url(#SVGID_2_)" fill="#FCBF58" d="M703.865,103.121c4.945,0.296,9.16-3.506,9.447-8.432
		c0.275-4.946-3.518-9.181-8.453-9.457c-4.945-0.257-9.161,3.506-9.447,8.452C695.127,98.629,698.92,102.845,703.865,103.121"/>
	<path clip-path="url(#SVGID_2_)" fill="#FCBF58" d="M752.332,60.25c4.945,0.275,9.162-3.507,9.449-8.453
		c0.275-4.926-3.518-9.162-8.463-9.457c-4.936-0.277-9.152,3.526-9.438,8.432C743.596,55.737,747.387,59.953,752.332,60.25"/>
	<g clip-path="url(#SVGID_2_)">
		<defs>
			<path id="SVGID_18_" d="M871.346,89.762c0,0,1.525,28.096-24.775,77.529c0,0-16.285,32.095-48.785,69.412
				c0,0-18.627,23.229-64.219,64.21c0,0-38.98,33.771-76.445,58.517c0,0-42.971,28.449-71.46,43.362c0,0-51.955,27.999-93.448,43.03
				c0,0-36.597,14.581-84.661,25.555c0,0-53.945,12.373-97.044,8.432c0,0-62.88-0.234-91.655-42.536
				c12.491,23.545,50.359,80.661,126.903,83.085c0,0,109.594,9.438,300.755-101.899C837.713,307.1,875.699,196.589,875.699,196.589
				c32.262-66.969,2.965-126.095-12.01-149.522C863.689,47.067,873.158,65.273,871.346,89.762"/>
		</defs>
		<clipPath id="SVGID_19_">
			<use xlink:href="#SVGID_18_"  overflow="visible"/>
		</clipPath>
		
			<radialGradient id="SVGID_20_" cx="276.3164" cy="638.9229" r="16.0948" gradientTransform="matrix(18.0428 0 0 -18.0428 -4430.9209 11811.8613)" gradientUnits="userSpaceOnUse">
			<stop  offset="0" style="stop-color:#E13B3F"/>
			<stop  offset="0.2808" style="stop-color:#DC3A3D"/>
			<stop  offset="0.4921" style="stop-color:#D03538"/>
			<stop  offset="0.6807" style="stop-color:#BD2D30"/>
			<stop  offset="0.8549" style="stop-color:#A52326"/>
			<stop  offset="1" style="stop-color:#8B191C"/>
		</radialGradient>
		<rect x="218.854" y="47.067" clip-path="url(#SVGID_19_)" fill="url(#SVGID_20_)" width="689.107" height="482.728"/>
	</g>
	<path clip-path="url(#SVGID_2_)" fill="#FCBF58" d="M352.612,522.327c-4.562,0-6.906-0.198-7.004-0.198
		c-76.908-2.423-115.367-59.56-128.331-84.009l3.043-1.854c27.918,41.002,89.577,41.771,90.197,41.771l0.167,0.02
		c5.526,0.491,11.575,0.749,17.979,0.749c38.045,0,78.09-9.084,78.475-9.162c47.394-10.816,84.05-25.299,84.415-25.476
		c40.931-14.835,92.728-42.655,93.231-42.952c28.125-14.695,70.919-42.988,71.342-43.265c36.942-24.411,75.874-58.063,76.257-58.417
		c44.932-40.351,63.797-63.698,63.994-63.935c32.047-36.764,48.449-68.78,48.605-69.115c25.721-48.33,24.609-76.347,24.59-76.623
		v-0.099v-0.117c1.764-23.702-7.379-41.592-7.479-41.769l3.104-1.773c14.57,22.776,44.893,83.104,12.166,151.156
		c-0.768,2.147-10.629,29.14-43.156,69.628c-30.561,38.025-87.805,95.458-186.779,153.125
		C484.391,514.958,380.55,522.327,352.612,522.327 M230.625,453.212c18.363,26.678,54.536,63.441,115.199,65.351
		c0.108,0,2.404,0.198,6.788,0.198c27.711,0,130.754-7.348,293.003-101.84c98.414-57.315,155.264-114.333,185.645-152.083
		c32.914-40.882,42.676-68.564,42.754-68.84l0.078-0.197c26.027-54.024,11.301-103.142-2.775-131.612
		c1.506,7.074,2.539,15.822,1.832,25.614c0.098,2.324,0.639,30.145-25.004,78.316c-0.137,0.296-16.736,32.686-49.02,69.766
		c-0.146,0.177-19.189,23.741-64.357,64.328c-0.424,0.355-39.542,34.184-76.671,58.712c-0.424,0.296-43.375,28.667-71.618,43.444
		c-0.502,0.276-52.516,28.233-93.654,43.128c-0.306,0.159-37.218,14.737-84.878,25.615c-0.404,0.098-40.833,9.259-79.282,9.259
		c-6.482,0-12.609-0.257-18.245-0.769C308.104,481.583,261.617,480.499,230.625,453.212"/>
	<path clip-path="url(#SVGID_2_)" fill="#FCBF58" d="M434.298,349.164h-0.02c-21.486,0-36.469-6.088-43.316-17.516
		c-9.398-15.803-2.453-39.917,19.555-67.934c21.751-27.721,55.718-56.092,95.625-79.873c50.97-30.381,103.841-48.527,141.473-48.527
		c21.504,0,36.479,6.068,43.314,17.535c9.398,15.782,2.463,39.917-19.523,67.933c-21.771,27.702-55.749,56.073-95.636,79.854
		C524.791,331.017,471.91,349.164,434.298,349.164 M647.615,137.738c-37.208,0-89.616,18.027-140.242,48.172
		c-39.66,23.663-73.39,51.798-94.984,79.302c-21.317,27.169-28.204,50.338-19.348,65.175c6.374,10.698,20.638,16.353,41.237,16.353
		h0.02c37.188,0,89.626-18.008,140.222-48.191c81.548-48.587,132.854-113.408,114.332-144.458
		C682.479,143.393,668.214,137.738,647.615,137.738"/>
	<g clip-path="url(#SVGID_2_)">
		<defs>
			<path id="SVGID_21_" d="M506.733,184.886c-82.248,49.02-133.64,114.451-114.717,146.131
				c18.846,31.683,100.876,17.616,183.133-31.404c82.257-49.02,133.642-114.471,114.736-146.151
				c-6.837-11.428-21.909-16.944-42.271-16.944C611.668,136.517,559.27,153.559,506.733,184.886"/>
		</defs>
		<clipPath id="SVGID_22_">
			<use xlink:href="#SVGID_21_"  overflow="visible"/>
		</clipPath>
		<path clip-path="url(#SVGID_22_)" fill="#FCBF58" d="M434.298,349.164h-0.02c-21.486,0-36.469-6.088-43.316-17.516
			c-9.398-15.803-2.453-39.917,19.555-67.934c21.751-27.721,55.718-56.092,95.625-79.873
			c50.97-30.381,103.841-48.527,141.473-48.527c21.504,0,36.479,6.068,43.314,17.535c9.398,15.782,2.463,39.917-19.523,67.933
			c-21.771,27.702-55.749,56.073-95.636,79.854C524.791,331.017,471.91,349.164,434.298,349.164 M647.615,137.738
			c-37.208,0-89.616,18.027-140.242,48.172c-39.66,23.663-73.39,51.798-94.984,79.302c-21.317,27.169-28.204,50.338-19.348,65.175
			c6.374,10.698,20.638,16.353,41.237,16.353h0.02c37.188,0,89.626-18.008,140.222-48.191
			c81.548-48.587,132.854-113.408,114.332-144.458C682.479,143.393,668.214,137.738,647.615,137.738"/>
	</g>
	<path clip-path="url(#SVGID_2_)" fill="#030406" d="M457.655,337.794c-6.118,0.14-79.834-0.137-79.834-0.137l-11.95-7.388
		l10.837-64.545c-0.06-2.718-1.331-43.581-1.616-48.488c7.506-0.197,70.997-13.278,70.997-13.278l10.955,8.116l-7.95,28.412
		c-6.275,0.137-32.765-0.827-35.809-0.749l0.562,21.18l19.309-10.264l11.023,8.058l1.123,27.111
		c-4.581,0.098-27.15-0.059-30.883,0.02l0.621,16.569c2.542-0.059,30.203-9.162,30.203-9.162l11.418,8.138L457.655,337.794z"/>
	<path clip-path="url(#SVGID_2_)" fill="#030406" d="M447.361,339.175c-21.584,0-69.057-0.198-69.54-0.198h-0.365l-13.033-8.038
		l10.935-65.313c-0.099-4.196-1.33-43.641-1.596-48.33l-0.079-1.379l1.37-0.02c7.329-0.158,70.15-13.122,70.771-13.26l0.591-0.117
		l12.167,9.043l-8.452,30.242l-0.995,0.021c-3.705,0.078-14.639-0.238-23.259-0.474c-4.778-0.118-9.014-0.236-11.22-0.275
		l0.462,17.652l18.146-9.653l12.226,8.925l1.212,29.14l-1.379,0.02c-2.394,0.059-9.782,0.04-16.786,0.02
		c-5.163-0.02-10.127-0.02-12.728-0.02l0.522,13.653c4.62-1.122,19.209-5.773,28.489-8.846l0.65-0.197l12.501,8.905l1.054,38.421
		l-1.33,0.02C456.562,339.175,453.094,339.175,447.361,339.175 M378.206,336.318c4.531,0.02,48.576,0.176,69.155,0.176
		c4.216,0,7.201-0.02,8.915-0.02l-0.926-34.4l-10.324-7.329c-5.832,1.891-27.445,8.924-29.948,8.984l-1.31,0.02l-0.749-19.19
		l1.359-0.041c1.793-0.059,7.822-0.039,14.156,0c5.96,0.021,12.186,0.021,15.377,0l-1.034-25.119l-9.842-7.172l-20.46,10.875
		l-0.66-24.667l1.773-0.04c1.754,0,6.621,0.138,12.265,0.296c7.891,0.217,17.801,0.512,22.135,0.492l7.428-26.578l-9.733-7.25
		c-6.492,1.359-58.122,11.959-69.293,13.101c0.374,8.65,1.506,45.217,1.546,47.227v0.139l-10.688,63.796L378.206,336.318z"/>
	<path clip-path="url(#SVGID_2_)" fill="#030406" d="M367.192,354.029c-5.951-0.472-17.289-1.95-23.859-2.915
		c-64.407-9.438-57.541-44.192-53.226-66.496c5.329-27.662,31.76-56.722,91.615-57.944l1.153,33.395
		c-36.381-0.472-55.729,8.393-58.753,24.036c-2.482,12.847,10.709,17.043,31.978,21.337l4.906-3.605l10.955,7.685L367.192,354.029z"
		/>
	<path clip-path="url(#SVGID_2_)" fill="#030406" d="M368.384,355.43l-1.291-0.101c-6.068-0.452-17.673-1.948-23.968-2.876
		c-25.121-3.703-41.483-11.367-50.054-23.446c-10.146-14.282-6.777-31.74-4.315-44.487l0.039-0.156
		c2.601-13.458,16.964-57.472,92.887-59.048l1.33-0.02l1.231,36.115l-1.389-0.02c-34.626-0.415-54.457,7.525-57.422,22.973
		c-2.138,10.994,8.088,15.131,30.341,19.662l5.211-3.822l12.363,8.689L368.384,355.43z M380.432,228.033
		c-72.77,1.99-86.532,43.957-89.015,56.822l-0.04,0.158c-2.502,12.964-5.605,29.101,3.852,42.459
		c8.029,11.289,24.273,18.797,48.281,22.343c5.832,0.827,16.245,2.206,22.5,2.778l4.532-42.439l-9.517-6.681l-4.62,3.37
		l-0.591-0.099c-20.411-4.118-35.809-8.412-33-22.894c2.216-11.466,13.958-25.14,57.412-25.14h1.251L380.432,228.033z"/>
	<path clip-path="url(#SVGID_2_)" fill="#030406" d="M156.485,335.136l-7.182-11.191l38.735-33.277l41.907-84.739l11.742,8.472
		c19.388,32.627,63.274,108.461,70.111,118.766l-35.553,18.717l-11.683-7.211l-2.7-20.608l-52.674,0.394
		c-1.537,2.344-14.166,24.137-18.402,32.155L156.485,335.136z M251.195,299.041c-4.403-10.186-10.413-22.893-13.221-30.223
		c-4.6,8.176-11.338,20.805-16.363,30.341L251.195,299.041z"/>
	<path clip-path="url(#SVGID_2_)" fill="#030406" d="M191.31,358.582l-35.8-22.462l-8.009-12.451l39.425-33.849l42.508-85.961
		l13.299,9.595l0.138,0.237c7.369,12.393,18.018,30.637,29.317,49.926c17.958,30.696,36.538,62.437,40.754,68.781l0.847,1.279
		l-37.611,19.802l-12.885-7.979l-2.621-20.057l-50.723,0.373c-2.64,4.354-14.018,24.019-17.959,31.445L191.31,358.582z
		 M157.49,334.13l32.765,20.531c4.758-8.748,16.264-28.588,17.771-30.953l0.384-0.63l54.654-0.395l2.788,21.161l10.453,6.481
		l33.534-17.672c-5.468-8.61-23.022-38.599-40.036-67.659c-11.191-19.15-21.791-37.257-29.149-49.65l-10.186-7.369l-41.326,83.558
		L151.097,324.2L157.49,334.13z M219.346,300.558l1.054-2.029c4.857-9.261,11.723-22.087,16.382-30.382l1.429-2.541l1.054,2.738
		c1.734,4.512,4.66,11.015,7.743,17.929c1.852,4.118,3.773,8.374,5.448,12.236l0.827,1.891L219.346,300.558z M237.768,272.029
		c-4.177,7.546-9.605,17.693-13.88,25.751l25.219-0.099c-1.449-3.329-3.044-6.856-4.601-10.304
		C241.964,281.703,239.521,276.304,237.768,272.029"/>
	<path clip-path="url(#SVGID_2_)" fill="#030406" d="M110.038,344.158l-12.245-7.446l13.604-72.643
		c0.04-3.901-0.108-39.031-0.088-41.571c32.41,0.334,53.107,1.379,67.145,4.925c16.905,4.394,31.761,14.56,31.554,33.73
		c-0.216,22.047-20.815,42.144-61.934,48.528l-0.059,4.569c-0.02,3.389,0.828,25.576,1.123,29.142L110.038,344.158z
		 M148.309,285.742c9.852-1.419,23.003-6.147,23.15-20.235c0.079-9.476-4.807-16.136-22.963-17.672L148.309,285.742z"/>
	<path clip-path="url(#SVGID_2_)" fill="#030406" d="M109.673,345.499l-13.368-8.138l13.752-73.411
		c0.02-2.443-0.02-14.008-0.04-24.253c-0.02-8.61-0.059-16.078-0.039-17.2l0.02-1.34h1.331c30.706,0.316,52.704,1.241,67.451,4.965
		c21.16,5.516,32.745,17.968,32.558,35.049c-0.236,24.51-23.948,43.444-61.935,49.65l-0.039,3.449
		c-0.04,3.348,0.808,25.555,1.103,29.001l0.128,1.419L109.673,345.499z M99.27,336.042l11.131,6.777l37.307-0.729
		c-0.364-6.067-1.054-24.687-1.034-27.84l0.069-5.713l1.123-0.177c37.267-5.792,60.565-23.88,60.812-47.208
		c0.197-21.238-19.043-29.435-30.568-32.449c-14.265-3.586-35.671-4.532-65.471-4.867c0,2.797,0.02,9.181,0.039,15.861
		c0.05,10.403,0.089,22.204,0.05,24.372l-0.02,0.236L99.27,336.042z M146.979,287.298l0.207-40.902l1.429,0.119
		c16.825,1.438,24.292,7.291,24.165,19.032c-0.158,15.684-15.27,20.215-24.284,21.515L146.979,287.298z M149.826,249.292
		l-0.167,34.893c8.216-1.459,20.323-5.792,20.461-18.678C170.179,258.513,167.785,251.184,149.826,249.292"/>
	<path clip-path="url(#SVGID_2_)" fill="#030406" d="M4.797,356.156l45.414-33.591c0-4.335,9.527-16.392-7.763-26.736
		c-13.703-8.235-35.089-20.943-35.877-39.089c-1.104-25.16,83.587-55.56,83.587-55.56l11.299,8.078l2.098,32.312
		c-27.051,0.06-40.675,0.788-40.656,9.675c0,5.182,15.338,16.096,29.416,22.973c11.486,5.615,24.135,7.625,24.175,27.11
		c0.039,23.781-26.51,64.151-100.551,61.865L4.797,356.156z"/>
	<path clip-path="url(#SVGID_2_)" fill="#030406" d="M21.938,364.689c-1.98,0-4-0.039-6.059-0.117l-0.384-0.021l-13.171-8.295
		l46.566-34.44c0.118-0.965,0.483-2.049,0.926-3.349c1.833-5.497,4.621-13.831-8.087-21.456l-0.266-0.158
		C27.347,288.382,6,275.596,5.172,256.8c-1.133-25.889,81.026-55.659,84.513-56.901l0.689-0.256l12.422,8.867l2.247,34.458h-1.498
		c-26.697,0.06-39.257,0.887-39.237,8.276c0,4.019,13.654,14.402,28.628,21.712c1.713,0.828,3.487,1.616,5.181,2.344
		c9.703,4.216,19.732,8.571,19.772,26.008c0.02,12.117-6.354,25.75-17.092,36.487C88.572,350.05,64.949,364.689,21.938,364.689
		 M16.343,361.794c1.901,0.059,3.753,0.078,5.595,0.078c42.065,0,65.018-14.167,76.888-26.068
		c10.206-10.224,16.274-23.108,16.254-34.497c-0.04-15.585-8.393-19.23-18.077-23.427c-1.734-0.769-3.527-1.557-5.3-2.404
		c-12.53-6.127-30.184-17.712-30.204-24.213c-0.02-10.305,14.609-11.014,40.548-11.113l-1.951-30.125l-10.146-7.25
		c-8.009,2.936-82.986,31.208-81.991,53.905c0.758,17.279,21.317,29.612,34.942,37.769l0.276,0.158
		c14.609,8.787,11.161,19.17,9.28,24.746c-0.423,1.301-0.827,2.543-0.827,3.192v0.71L7.29,356.059L16.343,361.794z"/>
	<g clip-path="url(#SVGID_2_)">
		<defs>
			<path id="SVGID_23_" d="M225.631,260.602c2.807,7.309,8.816,20.017,13.239,30.223l-29.602,0.119
				C214.292,281.388,221.06,268.758,225.631,260.602 M149.274,323.295l32.233,20.137c4.266-8.02,13.802-24.826,15.338-27.211
				l52.674-0.395c1.596,3.055,9.723,19.033,14.382,27.84l35.573-18.736c-6.856-10.285-50.763-86.119-70.131-118.746
				C229.344,206.184,154.958,314.645,149.274,323.295"/>
		</defs>
		<clipPath id="SVGID_24_">
			<use xlink:href="#SVGID_23_"  overflow="visible"/>
		</clipPath>
		
			<radialGradient id="SVGID_25_" cx="240.1016" cy="669.6289" r="16.096" gradientTransform="matrix(4.4717 0 0 -4.4717 -879.2006 3288.0298)" gradientUnits="userSpaceOnUse">
			<stop  offset="0" style="stop-color:#F1E908"/>
			<stop  offset="1" style="stop-color:#66BC48"/>
		</radialGradient>
		<rect x="149.274" y="206.184" clip-path="url(#SVGID_24_)" fill="url(#SVGID_25_)" width="150.201" height="137.501"/>
	</g>
	<path clip-path="url(#SVGID_2_)" fill="#FDDF0E" d="M263.321,345.52l-0.65-1.222c-3.064-5.833-7.605-14.679-10.916-21.122
		c-1.33-2.581-2.423-4.688-3.064-5.95l-51.088,0.374c-2.275,3.744-10.826,18.836-14.865,26.461l-0.69,1.319l-34.695-21.672
		l0.768-1.162c5.625-8.552,79.342-116.067,80.09-117.13l1.212-1.793l1.112,1.852c7.359,12.393,18.038,30.618,29.308,49.946
		c17.978,30.676,36.538,62.396,40.754,68.76l0.847,1.262L263.321,345.52z M250.347,314.447l0.384,0.75
		c0.542,1.023,1.813,3.526,3.468,6.719c3.063,6.009,7.221,14.106,10.265,19.899l33.031-17.398
		c-5.467-8.61-23.002-38.596-40.005-67.617c-10.738-18.363-20.924-35.761-28.224-48.093c-9.33,13.614-69.146,100.836-78.081,114.155
		l29.819,18.619c4.394-8.197,13.171-23.645,14.668-26.008l0.404-0.61L250.347,314.447z M207.012,292.323l1.044-2.009
		c4.867-9.241,11.703-22.067,16.383-30.401l1.458-2.542l1.024,2.739c1.715,4.512,4.641,11.033,7.753,17.91
		c1.852,4.138,3.763,8.393,5.438,12.254l0.828,1.912L207.012,292.323z M225.434,263.794c-4.197,7.566-9.625,17.711-13.881,25.771
		l25.219-0.119c-1.458-3.29-3.054-6.856-4.601-10.304C229.631,273.487,227.188,268.088,225.434,263.794"/>
	<g clip-path="url(#SVGID_2_)">
		<defs>
			<path id="SVGID_26_" d="M362.749,209.001c0.296,4.926,1.546,45.788,1.606,48.507l0.532,22.717
				c0.079,3.9,0.926,40.212,0.581,49.196c4.601-0.098,24.392-0.02,43.178,0.08c17.269,0.079,33.75,0.138,36.676,0.079l-0.985-36.449
				c-7.95,0.866-37.208,0.925-41.641,1.044l-0.611-16.531c1.803-0.059,8.009-0.039,14.472,0c6.876,0,14.038,0,16.422-0.039
				l-1.133-27.13c-7.447,0.866-26.933,2.128-30.322,2.207l-0.561-21.16c1.468,0,8.413,0.177,15.87,0.394
				c8.009,0.197,16.688,0.433,19.939,0.335l7.949-28.392C438.445,204.489,372.246,208.785,362.749,209.001"/>
		</defs>
		<clipPath id="SVGID_27_">
			<use xlink:href="#SVGID_26_"  overflow="visible"/>
		</clipPath>
		
			<radialGradient id="SVGID_28_" cx="287.6494" cy="685.582" r="16.0974" gradientTransform="matrix(3.3035 0 0 -3.3035 -559.341 2553.9805)" gradientUnits="userSpaceOnUse">
			<stop  offset="0" style="stop-color:#F1E908"/>
			<stop  offset="1" style="stop-color:#66BC48"/>
		</radialGradient>
		<rect x="362.749" y="203.859" clip-path="url(#SVGID_27_)" fill="url(#SVGID_28_)" width="82.572" height="125.78"/>
	</g>
	<path clip-path="url(#SVGID_2_)" fill="#FDDF0E" d="M440.288,330.919c-6.295,0-17.269-0.039-28.933-0.099
		c-13.279-0.059-27.435-0.117-36.676-0.117c-4.719,0-7.733,0.02-9.161,0.059l-1.409,0.02l0.04-1.419
		c0.275-8.531-0.443-42.398-0.611-49.118l-0.522-22.717c-0.039-2.187-1.31-43.444-1.596-48.448l-0.079-1.379l1.389-0.02
		c9.201-0.236,75.036-4.452,81.833-5.161l1.96-0.197l-8.738,31.247l-0.985,0.02c-3.734,0.099-14.668-0.216-23.308-0.453
		c-4.758-0.138-8.975-0.256-11.191-0.275l0.502,18.46c5.448-0.275,21.969-1.379,28.864-2.167l1.438-0.158l1.251,29.889l-1.37,0.039
		c-2.403,0.06-9.792,0.041-16.786,0.021c-5.172-0.021-10.157-0.041-12.738-0.021l0.532,13.891c1.104,0,2.641-0.02,4.492-0.039
		c10.314-0.099,29.495-0.277,35.691-0.946l1.438-0.158l1.064,39.188l-1.33,0.039C444.543,330.919,442.79,330.919,440.288,330.919
		 M374.679,328.043c9.241,0,23.426,0.059,36.676,0.117c14.462,0.059,27.859,0.12,32.588,0.081l-0.917-33.633
		c-7.418,0.591-24.854,0.749-34.519,0.827c-2.758,0.02-4.817,0.059-5.763,0.059l-1.32,0.04l-0.738-19.23l1.35-0.02
		c1.793-0.04,7.802-0.04,14.166,0c5.95,0,12.186,0.02,15.368,0l-1.004-24.352c-8.138,0.847-25.604,2.009-29.032,2.089l-1.31,0.039
		l-0.65-23.86l1.753-0.039c1.773,0,6.621,0.158,12.245,0.316c7.911,0.216,17.821,0.472,22.175,0.453l7.162-25.573
		c-12.363,1.004-66.574,4.452-78.76,4.945c0.384,8.708,1.488,45.118,1.546,47.167l0.512,22.736
		c0.197,8.965,0.848,37.828,0.641,47.857C368.542,328.043,371.123,328.043,374.679,328.043"/>
	<path clip-path="url(#SVGID_2_)" fill="#030406" d="M356.228,347.096c-5.95-0.453-9.26-1.518-17.171-2.443
		c-55.826-6.483-69.421-42.282-65.125-64.585c5.083-26.342,96.255-61.353,96.255-61.353l3.586,3.822l1.153,33.415
		c-36.371-0.473-58.752,8.374-61.777,24.057c-2.482,12.806,12.266,18.854,34.421,23.13c6.659,1.301,9.338,1.813,13.417,2.266
		L356.228,347.096z"/>
	<path clip-path="url(#SVGID_2_)" fill="#030406" d="M357.4,348.532l-1.291-0.098c-3.192-0.235-5.605-0.671-8.413-1.144
		c-2.384-0.433-5.103-0.905-8.797-1.319c-32.843-3.823-49.167-17.477-57.078-28.272c-8.186-11.151-11.614-25.337-9.201-37.888
		c5.172-26.755,93.33-60.899,97.083-62.339l0.847-0.314l4.542,4.847l1.212,35.287l-1.389-0.02
		c-35.475-0.414-57.561,7.999-60.466,22.973c-1.961,10.245,8.009,16.708,33.365,21.594l0.611,0.138
		c6.236,1.182,8.816,1.693,12.688,2.109l1.35,0.137L357.4,348.532z M369.832,220.271c-9.162,3.626-89.941,36.036-94.581,60.053
		c-2.286,11.842,0.965,25.239,8.708,35.8c7.605,10.363,23.347,23.485,55.246,27.188c3.773,0.433,6.531,0.928,8.955,1.341
		c2.344,0.414,4.403,0.769,6.885,1.023l4.453-39.089c-3.31-0.413-5.989-0.927-11.575-2.01l-0.611-0.118
		c-19.189-3.704-38.409-9.535-35.484-24.727c3.083-15.979,25.111-25.14,60.437-25.14h1.281l-1.093-31.483L369.832,220.271z"/>
	<g clip-path="url(#SVGID_2_)">
		<defs>
			<path id="SVGID_29_" d="M272.582,275.95c-4.315,22.302,10.452,54.023,65.106,64.563c7.812,1.537,11.221,2.01,17.171,2.504
				l4.758-41.731c-4.048-0.433-6.738-0.944-13.417-2.226c-22.146-4.314-36.902-10.343-34.42-23.189
				c3.034-15.663,22.402-24.491,58.752-24.017l-1.153-33.396C309.523,219.66,277.911,248.288,272.582,275.95"/>
		</defs>
		<clipPath id="SVGID_30_">
			<use xlink:href="#SVGID_29_"  overflow="visible"/>
		</clipPath>
		
			<radialGradient id="SVGID_31_" cx="267.6182" cy="679.2607" r="16.0919" gradientTransform="matrix(3.4895 0 0 -3.4895 -612.6566 2671.5676)" gradientUnits="userSpaceOnUse">
			<stop  offset="0" style="stop-color:#F1E908"/>
			<stop  offset="1" style="stop-color:#66BC48"/>
		</radialGradient>
		<rect x="268.267" y="218.458" clip-path="url(#SVGID_30_)" fill="url(#SVGID_31_)" width="102.265" height="124.56"/>
	</g>
	<path clip-path="url(#SVGID_2_)" fill="#FDDF0E" d="M356.021,344.415l-1.271-0.098c-5.97-0.453-9.358-0.947-17.328-2.482
		c-52.556-10.147-71.116-40.528-66.17-66.142c5.468-28.272,37.907-57.353,98.088-58.594l1.33-0.021l1.231,36.114l-1.389-0.02
		c-34.598-0.453-54.458,7.527-57.423,22.953c-1.064,5.537,1.251,9.792,7.349,13.399c5.428,3.211,13.673,5.832,26.026,8.215
		l0.562,0.098c6.256,1.202,8.837,1.714,12.728,2.128l1.33,0.158L356.021,344.415z M368.088,219.798
		c-57.866,1.596-88.996,29.376-94.216,56.408c-4.68,24.293,13.299,53.215,64.052,63.008c7.25,1.4,10.659,1.911,15.762,2.345
		l4.433-39.109c-3.3-0.395-6.009-0.925-11.595-1.99l-0.591-0.117c-12.629-2.443-21.18-5.143-26.845-8.532
		c-7.004-4.138-9.89-9.595-8.619-16.175c2.236-11.585,14.186-25.456,58.693-25.14L368.088,219.798z"/>
	<path clip-path="url(#SVGID_2_)" fill="#030406" d="M109.19,286.925l-2.748-25.378c0.049-3.9-1.389-36.547-1.37-39.089
		c32.401,0.316,46.99-2.699,61.028,0.848c16.934,4.413,31.76,14.56,31.553,33.73c-0.216,22.065-21.78,43.325-59.126,49.393
		l-2.847,3.704c-0.04,3.39,0.808,25.573,1.113,29.14C136.793,339.272,109.072,298.943,109.19,286.925 M135.966,281.624
		c9.861-1.418,22.992-6.147,23.14-20.234c0.099-9.497-4.807-16.136-22.943-17.673L135.966,281.624z"/>
	<path clip-path="url(#SVGID_2_)" fill="#030406" d="M138.537,344.2l-2.847-4.159c-1.123-1.654-27.839-40.665-27.839-53.058
		l-2.749-25.396v-0.06c0.03-2.127-0.394-13.101-0.778-22.815c-0.325-8.079-0.591-15.092-0.591-16.274l0.02-1.339l1.33,0.02
		c12.274,0.118,21.85-0.217,30.105-0.513c5.221-0.217,9.742-0.375,13.86-0.375c7.24,0,12.452,0.532,17.387,1.773
		c21.17,5.537,32.726,17.988,32.568,35.051c-0.266,24.391-24.233,44.685-59.737,50.595L137,310.586
		c0.04,4.493,0.827,25.26,1.133,28.589L138.537,344.2z M107.791,261.469l2.719,25.376v0.059
		c-0.079,9.339,17.762,37.14,24.677,47.601c-0.365-7.821-0.867-21.692-0.848-24.392v-0.433l3.448-4.493l0.522-0.078
		c34.459-5.595,57.787-24.923,58.033-48.073c0.197-21.24-19.072-29.436-30.568-32.45c-4.719-1.183-9.704-1.694-16.728-1.694
		c-4.078,0-8.57,0.177-13.782,0.373c-7.95,0.277-17.131,0.612-28.824,0.533c0.079,2.68,0.295,8.629,0.542,14.815
		C107.368,248.229,107.791,259.104,107.791,261.469 M134.625,283.181l0.197-40.921l1.458,0.137
		c16.826,1.418,24.264,7.29,24.146,19.033c-0.158,15.682-15.27,20.214-24.274,21.535L134.625,283.181z M137.493,245.194
		l-0.188,34.874c8.236-1.438,20.333-5.792,20.461-18.677C157.845,254.416,155.441,247.066,137.493,245.194"/>
	<g clip-path="url(#SVGID_2_)">
		<defs>
			<path id="SVGID_32_" d="M136.133,239.618c18.166,1.557,23.062,8.157,22.983,17.693c-0.138,14.048-13.289,18.776-23.18,20.214
				L136.133,239.618z M99.054,255.854l-0.178,18.638c-0.138,12.078-0.926,54.182-1.172,61.432l39.099-0.769
				c-0.325-3.566-1.152-25.731-1.113-29.14l0.049-4.591c41.109-6.345,61.708-26.44,61.915-48.468
				c0.197-19.19-14.629-29.356-31.573-33.77c-14.008-3.527-34.705-4.591-67.105-4.906C98.955,216.823,99.073,251.933,99.054,255.854
				"/>
		</defs>
		<clipPath id="SVGID_33_">
			<use xlink:href="#SVGID_32_"  overflow="visible"/>
		</clipPath>
		
			<radialGradient id="SVGID_34_" cx="217.0381" cy="682.2441" r="16.1044" gradientTransform="matrix(3.4582 0 0 -3.4582 -615.9901 2651.283)" gradientUnits="userSpaceOnUse">
			<stop  offset="0" style="stop-color:#F1E908"/>
			<stop  offset="1" style="stop-color:#66BC48"/>
		</radialGradient>
		<rect x="97.704" y="214.281" clip-path="url(#SVGID_33_)" fill="url(#SVGID_34_)" width="100.147" height="121.643"/>
	</g>
	<path clip-path="url(#SVGID_2_)" fill="#FDDF0E" d="M96.314,337.282l0.04-1.397c0.255-7.39,1.063-49.848,1.182-61.413l0.187-18.658
		c0.02-2.128-0.02-13.93-0.04-24.333c-0.04-8.63-0.06-16.078-0.06-17.221l0.02-1.339l1.331,0.02
		c30.726,0.315,52.713,1.241,67.46,4.946c21.17,5.535,32.726,17.988,32.568,35.069c-0.266,24.49-23.948,43.463-61.963,49.63
		l-0.04,3.448c-0.02,3.33,0.827,25.554,1.133,29.022l0.119,1.397L96.314,337.282z M100.304,215.602c0,2.817,0.02,9.181,0.04,15.861
		c0.039,10.422,0.059,22.224,0.039,24.372l-0.178,18.697c-0.118,11.29-0.847,49.689-1.132,60.033l36.292-0.708
		c-0.355-6.07-1.044-24.668-1.025-27.84l0.06-5.713l1.132-0.177c37.268-5.773,60.565-23.86,60.812-47.208
		c0.197-21.219-19.072-29.435-30.568-32.45C151.51,216.883,130.104,215.937,100.304,215.602 M134.625,279.063l0.197-40.902
		l1.458,0.119c16.826,1.438,24.264,7.289,24.146,19.032c-0.158,15.703-15.27,20.235-24.274,21.535L134.625,279.063z
		 M137.493,241.077l-0.188,34.873c8.236-1.439,20.333-5.793,20.461-18.678C157.845,250.317,155.441,242.948,137.493,241.077"/>
	<path clip-path="url(#SVGID_2_)" fill="#030406" d="M7.713,314.33c20.983,0.611,42.853,2.463,42.833-7.704
		c0-4.333,11.723-12.55-5.812-22.46C31.1,276.403,13.988,271.458,13.2,253.332c-1.27-28.982,22.559-43.306,77.292-48.191
		l2.079,32.312c-27.032,0.059-40.656,0.808-40.636,9.673c0,5.182,6.926,8.413,21.003,15.309
		c11.477,5.596,33.454,15.329,32.588,34.755c-1.074,23.721-14.146,54.99-90.247,61.924C11.95,359.191,7.713,314.33,7.713,314.33"/>
	<path clip-path="url(#SVGID_2_)" fill="#030406" d="M15.269,360.511c-1.379,0-4.6,0-8.945-46.042l-0.157-1.576l1.596,0.039
		c2.039,0.059,4.098,0.117,6.127,0.217c4.906,0.157,9.525,0.314,13.88,0.314c7.044,0,16.786-0.374,20.116-3.724
		c0.847-0.847,1.271-1.872,1.251-3.113c0-1.419,0.769-2.837,1.655-4.452c2.502-4.669,5.349-9.95-6.738-16.787
		c-2.355-1.34-4.896-2.64-7.339-3.882c-11.911-6.068-24.214-12.354-24.924-28.115c-1.31-29.77,22.194-44.625,78.563-49.649
		l1.438-0.119l2.276,35.208l-1.488,0.02c-26.697,0.059-39.267,0.886-39.247,8.274c0,4.158,6.738,7.467,18.963,13.437l2.847,1.398
		c12.206,5.911,32.646,15.783,31.78,35.307c-1.675,37.1-31.613,57.769-91.518,63.244H15.269z M9.25,315.787
		c1.842,18.837,4.621,38.835,6.443,41.887c57.875-5.377,86.828-25.179,88.424-60.524c0.788-17.674-18.6-27.071-30.184-32.667
		l-2.867-1.399c-13.654-6.699-20.53-10.047-20.53-15.959c-0.02-10.264,14.6-10.994,40.548-11.072l-1.911-29.377
		c-53.472,4.965-75.785,18.934-74.574,46.577c0.63,14.146,11.684,19.801,23.387,25.771c2.482,1.241,5.024,2.562,7.437,3.941
		c14.491,8.157,10.314,15.899,7.832,20.508c-0.641,1.223-1.311,2.445-1.311,3.153c0,1.97-0.689,3.685-2.059,5.084
		c-3.182,3.191-9.802,4.552-22.116,4.552c-4.394,0-9.053-0.158-13.959-0.316C12.304,315.887,10.768,315.846,9.25,315.787"/>
	<g clip-path="url(#SVGID_2_)">
		<defs>
			<path id="SVGID_35_" d="M3.526,247.677c0.788,18.166,15.841,28.962,29.475,36.706c17.574,9.93,16.146,13.771,16.166,18.146
				c0.039,10.167-26.736,4.708-47.72,4.098l2.138,48.329c74.061,2.306,100.59-38.083,100.551-61.884
				c-0.02-19.426-21.063-29.14-32.559-34.755c-14.087-6.875-21.002-10.127-21.002-15.288c-0.02-8.886,13.595-9.655,40.636-9.694
				l-2.099-32.292C34.39,205.928,2.255,218.734,3.526,247.677"/>
		</defs>
		<clipPath id="SVGID_36_">
			<use xlink:href="#SVGID_35_"  overflow="visible"/>
		</clipPath>
		
			<radialGradient id="SVGID_37_" cx="204.2354" cy="672.6338" r="16.0999" gradientTransform="matrix(4.0655 0 0 -4.0655 -781.2477 3033.1785)" gradientUnits="userSpaceOnUse">
			<stop  offset="0" style="stop-color:#F1E908"/>
			<stop  offset="0.4248" style="stop-color:#BED732"/>
			<stop  offset="1" style="stop-color:#66BC48"/>
		</radialGradient>
		<rect x="1.448" y="201.042" clip-path="url(#SVGID_36_)" fill="url(#SVGID_37_)" width="102.728" height="156.219"/>
	</g>
	<path clip-path="url(#SVGID_2_)" fill="#FDDF0E" d="M9.585,356.434c-1.98,0-4-0.02-6.028-0.079l-1.311-0.039L0,305.207l1.498,0.02
		c5.182,0.158,10.708,0.611,16.057,1.025c6.255,0.492,12.167,0.984,17.21,0.984c6.492,0,10.472-0.808,12.127-2.481
		c0.601-0.61,0.887-1.321,0.887-2.246c0-0.296,0-0.631,0.02-0.926c0.059-3.507,0.138-7.172-15.457-15.959
		c-13.634-7.743-29.396-19.072-30.224-37.868c-0.64-14.677,6.739-25.692,22.58-33.671c14.077-7.131,35.099-11.841,64.278-14.441
		l1.428-0.138l2.305,35.208h-1.497c-14.324,0.039-23.85,0.314-30.224,1.537c-7.97,1.536-9.033,4.275-9.033,6.757
		c0.02,4.177,6.757,7.468,18.983,13.458l2.216,1.063c12.107,5.892,32.341,15.742,32.381,35.563
		c0.039,12.097-6.354,25.732-17.063,36.47C76.228,341.835,52.615,356.434,9.585,356.434 M4.925,353.597
		c1.576,0.039,3.123,0.059,4.66,0.059c42.065,0,65.047-14.165,76.908-26.066c10.186-10.205,16.284-23.13,16.264-34.499
		c-0.039-18.066-19.309-27.425-30.834-33.04l-2.217-1.084c-13.683-6.678-20.539-10.048-20.539-15.959
		c-0.021-6.581,6.432-8.57,11.299-9.515c6.394-1.241,15.27-1.518,29.258-1.557l-1.921-29.376
		c-58.427,5.379-84.011,19.307-82.878,45.079c0.769,17.317,14.994,27.7,28.786,35.542c15.84,8.945,16.993,13.298,16.875,18.46v0.868
		c0,1.675-0.571,3.093-1.724,4.216c-2.256,2.285-6.61,3.31-14.097,3.31c-5.163,0-11.122-0.491-17.436-0.985
		c-4.798-0.394-9.743-0.768-14.403-0.964L4.925,353.597z"/>
	<g clip-path="url(#SVGID_2_)">
		<defs>
			<path id="SVGID_38_" d="M437.096,123.553l30.459,219.306c60.752-12.116,131.001-55.206,163.697-84.503l15.161-169.085
				L437.096,123.553z"/>
		</defs>
		<clipPath id="SVGID_39_">
			<use xlink:href="#SVGID_38_"  overflow="visible"/>
		</clipPath>
		<path clip-path="url(#SVGID_39_)" fill="#030406" d="M617.125,431.479c-2.039,127.869-77.154,284.345-310.074,48.586
			l89.941-89.132l17.23,10.539c75.745,160.042,108.608,152.89,91.271,11.565c0,0-23.583-237.55-25.535-253.037l129.296-57.431
			l16.441,10.265c-1.368,20.254-6.934,99.872-3.949,169.045L617.125,431.479z"/>
		<path clip-path="url(#SVGID_39_)" fill="#030406" d="M507.61,604.151c-53.729,0-121.721-41.236-202.077-122.588l-1.487-1.498
			l92.621-91.852l19.229,11.762l0.256,0.572c48.418,102.313,70.229,117.582,78.947,117.582c2,0,3.714-0.847,5.271-2.58
			c5.083-5.774,12.265-26.717,3.025-102.254c-0.267-2.424-23.624-237.75-25.564-253.038l-0.197-1.577l131.798-58.515l18.501,11.525
			l-0.178,2.542c-4.502,66.259-5.792,122.627-3.853,167.549v0.098v0.06l-4.619,149.598
			C618.012,511.156,587.986,604.151,507.61,604.151 M310.095,480.085c78.868,79.479,145.304,119.79,197.516,119.79
			c77.272,0,106.137-90.729,107.368-168.415l4.619-149.561c-1.93-45.079-0.62-101.565,3.882-167.922l-14.392-8.984l-126.814,56.309
			c2.925,25.573,25.131,249.215,25.376,251.518c7.201,58.853,5.832,94.376-4.078,105.547c-2.354,2.681-5.221,4.039-8.472,4.039
			c-17.229,0-44.99-40.194-82.533-119.436l-15.26-9.32L310.095,480.085z"/>
		<path clip-path="url(#SVGID_39_)" fill="#030406" d="M617.125,431.479c-2.039,127.869-77.154,284.345-310.074,48.586
			l89.941-89.132l17.23,10.539c75.745,160.042,108.608,152.89,91.271,11.565c0,0-23.583-237.55-25.535-253.037l129.296-57.431
			l16.441,10.265c-1.368,20.254-6.934,99.872-3.949,169.045L617.125,431.479z"/>
		<path clip-path="url(#SVGID_39_)" fill="#030406" d="M507.61,604.151c-53.729,0-121.721-41.236-202.077-122.588l-1.487-1.498
			l92.621-91.852l19.229,11.762l0.256,0.572c48.418,102.313,70.229,117.582,78.947,117.582c2,0,3.714-0.847,5.271-2.58
			c5.083-5.774,12.265-26.717,3.025-102.254c-0.267-2.424-23.624-237.75-25.564-253.038l-0.197-1.577l131.798-58.515l18.501,11.525
			l-0.178,2.542c-4.502,66.259-5.792,122.627-3.853,167.549v0.098v0.06l-4.619,149.598
			C618.012,511.156,587.986,604.151,507.61,604.151 M310.095,480.085c78.868,79.479,145.304,119.79,197.516,119.79
			c77.272,0,106.137-90.729,107.368-168.415l4.619-149.561c-1.93-45.079-0.62-101.565,3.882-167.922l-14.392-8.984l-126.814,56.309
			c2.925,25.573,25.131,249.215,25.376,251.518c7.201,58.853,5.832,94.376-4.078,105.547c-2.354,2.681-5.221,4.039-8.472,4.039
			c-17.229,0-44.99-40.194-82.533-119.436l-15.26-9.32L310.095,480.085z"/>
	</g>
	<g clip-path="url(#SVGID_2_)">
		<defs>
			<path id="SVGID_40_" d="M461.378,132.852c1.331,10.462,12.551,130.332,19.673,206.854
				c42.911-11.387,88.788-36.095,121.858-59.225l0.246-8.61c-2.945-69.175,2.602-148.751,3.971-169.045L461.378,132.852z"/>
		</defs>
		<clipPath id="SVGID_41_">
			<use xlink:href="#SVGID_40_"  overflow="visible"/>
		</clipPath>
		
			<radialGradient id="SVGID_42_" cx="273.7842" cy="638.667" r="16.0986" gradientTransform="matrix(12.8212 0 0 -12.8212 -3062.3555 8535.9043)" gradientUnits="userSpaceOnUse">
			<stop  offset="0" style="stop-color:#F1E908"/>
			<stop  offset="1" style="stop-color:#66BC48"/>
		</radialGradient>
		<rect x="461.378" y="102.826" clip-path="url(#SVGID_41_)" fill="url(#SVGID_42_)" width="145.749" height="236.88"/>
	</g>
	<g clip-path="url(#SVGID_2_)">
		<defs>
			<path id="SVGID_43_" d="M437.096,123.553l30.459,219.306c60.752-12.116,131.001-55.206,163.697-84.503l15.161-169.085
				L437.096,123.553z"/>
		</defs>
		<clipPath id="SVGID_44_">
			<use xlink:href="#SVGID_43_"  overflow="visible"/>
		</clipPath>
		<path clip-path="url(#SVGID_44_)" fill="#FDDF0E" d="M489.031,594.143c-53.729,0-121.721-41.238-202.077-122.567l-1.733-1.795
			l111.249-81.586l1.123,2.364c48.398,102.294,70.229,117.563,78.927,117.563c2.02,0,3.734-0.847,5.271-2.58
			c5.103-5.773,12.265-26.716,3.024-102.254c-0.266-2.603-23.623-254.91-25.563-270.179l-0.247-1.951l150.447-30.972l-0.275,4.058
			c-4.502,66.239-5.793,122.607-3.852,167.549v0.078v0.079l-4.621,149.599C599.434,501.167,569.426,594.143,489.031,594.143
			 M291.761,470.314c78.761,79.319,145.118,119.552,197.27,119.552c77.271,0,106.136-90.729,107.367-168.435l4.621-149.541
			c-1.912-44.705-0.641-100.698,3.772-166.386l-141.059,29.042c3.083,28.096,25.09,265.823,25.337,268.286
			c7.201,58.813,5.832,94.355-4.078,105.546c-2.355,2.681-5.221,4.039-8.472,4.039c-17.092,0-44.567-39.602-81.686-117.683
			L291.761,470.314z"/>
	</g>
	<path clip-path="url(#SVGID_2_)" fill="#030406" d="M547.508,393.061l-14.226-13.239l8.374-9.38l118.686-218.596l15.713,7.625
		c31.721,59.875,105.781,202.875,121.18,221.729l-65.186,40.509l-21.672-8.119l-1.852-40.21l-79.007-1.616
		c-2.403,4.492-15.19,31.268-21.87,46.32L547.508,393.061z M690.91,324.457c-7.24-18.756-15.723-42.183-20.322-55.659
		c-7.241,15.348-13.693,34.735-21.584,52.704L690.91,324.457z"/>
	<path clip-path="url(#SVGID_2_)" fill="#030406" d="M732.275,423.894l-23.791-8.904l-1.852-39.682l-75.942-1.535
		c-3.349,6.58-14.993,30.99-21.249,45.099l-0.788,1.753l-62.239-25.89l-15.891-14.776l9.496-10.66l119.318-220.369l18.155,9.043
		l0.306,0.571c5.35,10.088,11.9,22.54,19.17,36.37c35.484,67.501,89.113,169.539,101.783,185.025l1.428,1.732L732.275,423.894z
		 M712.277,412.191l19.555,7.328l62.516-38.852c-14.963-20.531-66.436-118.431-100.876-183.921
		c-7.122-13.575-13.555-25.831-18.845-35.78l-13.457-6.54L543.271,371.585l-7.24,8.116l12.55,11.685l58.043,24.135
		c6.876-15.367,18.885-40.448,21.16-44.686l0.562-1.042l82.061,1.654L712.277,412.191z M693.855,326.645l-47.768-3.389l1.123-2.563
		c3.596-8.195,6.926-16.746,10.127-25.042c3.881-9.93,7.526-19.328,11.467-27.702l2.078-4.373l1.566,4.57
		c4.443,13.005,12.836,36.253,20.303,55.6L693.855,326.645z M651.91,319.709l36.055,2.562c-6.354-16.589-13.21-35.484-17.634-48.192
		c-3.142,7.093-6.146,14.875-9.319,22.992C658.126,304.538,655.141,312.221,651.91,319.709"/>
	<path clip-path="url(#SVGID_2_)" fill="#030406" d="M743.91,389.14c4.176-9.003,44.006-246.436,44.006-246.436l17.691,10.994
		l69.707,104.915l42.695-110.59l16.865,11.349L997.596,382.4l-68.918,20.767l-18.018-8.354l-2.984-85.804l-38.469,77.194
		l-17.436-7.23l-21.91-71.579l-1.447,17.91l-6.324,83.164L743.91,389.14z"/>
	<path clip-path="url(#SVGID_2_)" fill="#030406" d="M823.871,410.95l-82.74-20.491l0.986-2.147
		c3.35-7.191,32.783-179.96,43.848-245.943l0.346-2.975l20.695,12.866l0.236,0.334l67.609,101.762l42.213-109.348l19.525,13.122
		l0.186,0.71L1000,383.723l-71.461,21.534l-19.789-9.161l-2.77-79.283l-35.828,71.894l-19.998-8.256l-19.16-62.634l-0.631,7.646
		L823.871,410.95z M746.402,387.722l73.895,18.302l6.156-80.857l1.457-17.93l3.832-0.413l21.625,70.692l14.895,6.146l37.66-75.518
		l3.715,0.788l2.943,84.602l16.246,7.526l66.348-19.998l-61.992-220.469l-14.246-9.555l-43.158,111.83l-71.578-107.713l-14.826-9.22
		C784.813,173.064,752.736,363.546,746.402,387.722"/>
	<g clip-path="url(#SVGID_2_)">
		<defs>
			<path id="SVGID_45_" d="M260.642,471.494L424.24,602.949l97.202,14.266l74.248-31.406l26.047-61.215l-0.168-90.021
				c-28.607,17.141-103.674,51.306-135.375,60.82l-84.809-123.907L260.642,471.494z"/>
		</defs>
		<clipPath id="SVGID_46_">
			<use xlink:href="#SVGID_45_"  overflow="visible"/>
		</clipPath>
		<path clip-path="url(#SVGID_46_)" fill="#030406" d="M617.125,431.479c-2.039,127.869-77.154,284.345-310.074,48.586
			l89.941-89.132l17.23,10.539c52.151,117.898,96.462,153.6,91.271,11.565c0,0-23.583-237.55-25.535-253.037l129.296-43.128
			l16.441,17.417c-1.368,20.234-6.934,78.416-3.949,147.589L617.125,431.479z"/>
		<path clip-path="url(#SVGID_46_)" fill="#030406" d="M507.61,604.151c-53.729,0-121.721-41.236-202.077-122.588l-1.487-1.498
			l92.621-91.852l19.249,11.762l0.276,0.631c28.893,65.314,54.23,102.767,69.548,102.767c2.384,0,4.483-0.965,6.414-2.975
			c6.314-6.54,13.397-27.013,11.22-87.281c-0.246-2.245-23.603-237.571-25.544-252.859l-0.217-1.734l132.281-44.113l17.998,19.072
			l-0.059,0.925c-0.158,2.503-0.404,5.576-0.67,9.162c-1.911,25.219-5.891,77.686-3.262,138.212v0.098v0.06l-4.619,149.598
			C618.012,511.156,587.986,604.151,507.61,604.151 M310.095,480.085c78.868,79.479,145.304,119.79,197.516,119.79
			c77.272,0,106.137-90.729,107.368-168.415l4.619-149.561c-2.6-60.761,1.38-113.367,3.291-138.644
			c0.246-3.153,0.443-5.892,0.61-8.197l-14.855-15.741l-126.351,42.163c3.004,26.342,25.111,249.038,25.356,251.341
			c1.793,49.729-2.384,80.149-12.412,90.553c-2.739,2.858-5.931,4.275-9.497,4.275c-22.115,0-51.955-56.781-73.193-104.697
			l-15.24-9.301L310.095,480.085z"/>
	</g>
	<g clip-path="url(#SVGID_2_)">
		<defs>
			<path id="SVGID_47_" d="M288.117,470.412c217.228,219.858,297.219,98.63,308.657-22.44
				c-33.77,17.08-82.779,38.635-108.215,46.694c-8.896,38.654-40.774,8.058-93.251-102.847L288.117,470.412z"/>
		</defs>
		<clipPath id="SVGID_48_">
			<use xlink:href="#SVGID_47_"  overflow="visible"/>
		</clipPath>
		
			<radialGradient id="SVGID_49_" cx="273.8594" cy="638.4893" r="16.0897" gradientTransform="matrix(12.69 0 0 -12.69 -3027.8345 8453.7461)" gradientUnits="userSpaceOnUse">
			<stop  offset="0" style="stop-color:#F1E908"/>
			<stop  offset="1" style="stop-color:#66BC48"/>
		</radialGradient>
		<rect x="288.117" y="391.819" clip-path="url(#SVGID_48_)" fill="url(#SVGID_49_)" width="308.657" height="298.451"/>
	</g>
	<g clip-path="url(#SVGID_2_)">
		<defs>
			<path id="SVGID_50_" d="M260.642,471.494L424.24,602.949l97.202,14.266l74.248-31.406l26.047-61.215l-0.168-90.021
				c-28.607,17.141-103.674,51.306-135.375,60.82l-84.809-123.907L260.642,471.494z"/>
		</defs>
		<clipPath id="SVGID_51_">
			<use xlink:href="#SVGID_50_"  overflow="visible"/>
		</clipPath>
		<path clip-path="url(#SVGID_51_)" fill="#FDDF0E" d="M488.686,594.517c-53.728,0-121.711-41.238-202.066-122.587l-1.744-1.774
			l111.269-81.586l1.114,2.364c48.399,102.273,70.229,117.542,78.927,117.542c2.01,0,3.724-0.847,5.261-2.579
			c5.103-5.774,12.264-26.697,3.005-102.235c-0.217-2.345-23.604-230.616-25.544-245.906l-0.217-1.754l150.448-48.684l-0.522,7.606
			c-1.764,25.297-6.423,92.521-3.635,157.204v0.099v0.059l-4.62,149.6C599.088,501.503,569.092,594.517,488.686,594.517
			 M291.417,470.667c78.76,79.342,145.117,119.574,197.269,119.574c77.273,0,106.146-90.748,107.377-168.436l4.62-149.56
			c-2.788-64.899,1.893-132.242,3.665-157.599l0.089-1.3l-141.069,45.649c3.024,26.105,25.121,241.926,25.356,244.17
			c7.212,58.852,5.833,94.375-4.068,105.586c-2.364,2.66-5.231,4.019-8.472,4.019c-17.091,0-44.576-39.601-81.695-117.682
			L291.417,470.667z"/>
	</g>
	<path clip-path="url(#SVGID_2_)" fill="#030406" d="M484.952,499.708c18.58-5.497,116.126-32.823,120.027-37.513
		c0.886-1.063,0.965-19.131-0.267-18.48c-34.381,18.047-93.635,43.858-118.509,51.619L484.952,499.708z"/>
	<g clip-path="url(#SVGID_2_)">
		<defs>
			<path id="SVGID_52_" d="M725.389,375.249l78.18,19.349l7.773-96.778l38.813,78.257l38.982-76.642l21.021,94.138l68.92-20.767
				l-62.725-223.03l-59.559,99.241l-69.727-104.915C787.068,144.102,730.799,363.604,725.389,375.249"/>
		</defs>
		<clipPath id="SVGID_53_">
			<use xlink:href="#SVGID_52_"  overflow="visible"/>
		</clipPath>
		
			<radialGradient id="SVGID_54_" cx="333.3447" cy="649.5791" r="16.104" gradientTransform="matrix(7.8293 0 0 -7.8293 -1720.2679 5398.1904)" gradientUnits="userSpaceOnUse">
			<stop  offset="0" style="stop-color:#F1E908"/>
			<stop  offset="1" style="stop-color:#66BC48"/>
		</radialGradient>
		<rect x="725.389" y="144.102" clip-path="url(#SVGID_53_)" fill="url(#SVGID_54_)" width="253.689" height="250.496"/>
	</g>
	<path clip-path="url(#SVGID_2_)" fill="#FDDF0E" d="M805.342,397.06l-82.73-20.45l1.006-2.188
		c5.27-11.327,60.988-228.605,61.549-230.792l1.113-4.275l70.436,105.999l60.301-100.501l64.455,229.296l-72.77,21.906
		l-20.275-90.866l-38.311,75.282l-37.385-75.42L805.342,397.06z M728.01,373.89l73.785,18.245l8.146-101.565l40.234,81.133
		l39.709-78.06l21.742,97.428l65.025-19.584l-60.947-216.784l-58.832,97.979L787.896,148.87
		C780.104,179.152,736.088,350.229,728.01,373.89"/>
	<path clip-path="url(#SVGID_2_)" fill="#030406" d="M552.049,381.85l-5.91-2.403l-4.857-7.725l128.232-209.907
		C701.205,221.71,770.43,355.488,781.58,374.362l-65.186,40.549c-7.377-15.705-16.381-42.184-19.287-48.41l-79.007-1.616
		c-2.394,4.475-13.111,18.562-19.79,33.614L552.049,381.85z M679.492,317.58c-7.24-18.776-15.711-42.182-20.332-55.659
		c-7.24,15.348-13.673,34.735-21.564,52.684L679.492,317.58z"/>
	<path clip-path="url(#SVGID_2_)" fill="#030406" d="M715.549,417.729l-0.926-1.99c-4.602-9.773-9.684-23.329-13.764-34.224
		c-2.068-5.497-3.891-10.363-5.043-13.083l-76.603-1.537c-0.808,1.322-2,3.152-3.429,5.282c-4.393,6.618-11.033,16.646-15.672,27.11
		l-0.75,1.675l-47.994-17.259l-6.541-2.661l-5.871-9.279l130.676-213.908l1.615,3.054c11.358,21.456,27.277,51.915,44.123,84.149
		c29.879,57.156,60.771,116.222,67.914,128.322l0.965,1.635L715.549,417.729z M616.938,362.896l81.43,1.656l0.522,1.102
		c1.143,2.463,3.143,7.784,5.645,14.503c3.793,10.087,8.432,22.46,12.707,31.898l61.678-38.343
		c-8.668-15.19-38.311-71.913-67.016-126.842c-16.088-30.736-31.298-59.836-42.528-81.055l-125.78,205.907l3.882,6.148l5.3,2.146
		l44.488,15.998c4.719-10.165,11.014-19.623,15.25-25.987c1.773-2.719,3.191-4.826,3.852-6.067L616.938,362.896z M682.449,319.768
		l-47.779-3.389l1.133-2.562c3.606-8.216,6.916-16.767,10.146-25.041c3.853-9.95,7.508-19.348,11.438-27.721l2.079-4.374l1.556,4.59
		c4.434,12.945,12.827,36.173,20.314,55.601L682.449,319.768z M640.502,312.852l36.056,2.562
		c-6.384-16.667-13.221-35.543-17.634-48.23c-3.152,7.112-6.157,14.875-9.328,23.012
		C646.719,297.642,643.733,305.365,640.502,312.852"/>
	<g clip-path="url(#SVGID_2_)">
		<defs>
			<path id="SVGID_55_" d="M630.493,311.906c7.862-17.929,14.324-37.354,21.565-52.724c4.619,13.497,13.092,36.923,20.332,55.68
				L630.493,311.906z M533.607,378.795l60.16,25.043c6.641-15.054,14.817-37.198,17.191-41.65l79.025,1.597
				c2.945,6.243,11.93,32.705,19.309,48.407l65.186-40.528C763.287,352.749,691,212.942,659.299,153.086
				C659.299,153.086,540.75,365.852,533.607,378.795"/>
		</defs>
		<clipPath id="SVGID_56_">
			<use xlink:href="#SVGID_55_"  overflow="visible"/>
		</clipPath>
		
			<radialGradient id="SVGID_57_" cx="308.3833" cy="649.9502" r="16.1048" gradientTransform="matrix(7.7695 0 0 -7.7695 -1717.6246 5360.4966)" gradientUnits="userSpaceOnUse">
			<stop  offset="0" style="stop-color:#F1E908"/>
			<stop  offset="1" style="stop-color:#66BC48"/>
		</radialGradient>
		<rect x="533.607" y="153.086" clip-path="url(#SVGID_56_)" fill="url(#SVGID_57_)" width="240.871" height="259.105"/>
	</g>
	<path clip-path="url(#SVGID_2_)" fill="#FDDF0E" d="M708.436,415.028l-0.926-2.01c-4.6-9.731-9.684-23.326-13.752-34.224
		c-2.059-5.497-3.901-10.363-5.044-13.082l-76.504-1.535c-1.3,2.756-3.576,8.472-6.138,14.953
		c-3.311,8.314-7.063,17.73-10.512,25.495l-0.768,1.752l-63.954-26.596l1.064-1.932c7.044-12.787,124.489-223.642,125.671-225.75
		l1.764-3.172l1.695,3.211c11.535,21.771,28.164,53.61,45.777,87.321c30.617,58.614,62.279,119.219,69.361,131.198l0.986,1.654
		L708.436,415.028z M609.826,360.179l81.43,1.654l0.521,1.123c1.152,2.463,3.143,7.762,5.664,14.48
		c3.773,10.087,8.414,22.499,12.699,31.918l61.668-38.36c-8.67-15.229-39.061-73.372-68.496-129.701
		c-16.766-32.095-32.637-62.495-44.063-84.109c-14.256,25.594-110.137,197.712-122.846,220.647l56.33,23.446
		c3.211-7.351,6.64-15.959,9.664-23.605c3.172-7.898,5.635-14.146,6.865-16.412L609.826,360.179z M675.336,317.049l-47.777-3.389
		l1.132-2.561c3.586-8.197,6.915-16.767,10.128-25.043c3.871-9.95,7.525-19.348,11.457-27.721l2.078-4.374l1.576,4.591
		c4.412,12.984,12.826,36.252,20.293,55.62L675.336,317.049z M633.39,310.133l36.056,2.563
		c-6.374-16.63-13.221-35.504-17.634-48.232c-3.151,7.113-6.157,14.876-9.319,23.012
		C639.605,294.963,636.621,302.646,633.39,310.133"/>
</g>
</svg>
